<svg xmlns="http://www.w3.org/2000/svg" width="24" height="24" viewBox="0 0 24 24">
  <defs>
    <linearGradient id="grad" x1="0%" y1="0%" x2="100%" y2="100%">
      <stop offset="0%" stop-color="#e6e6e6" stop-opacity="1" />
      <stop offset="100%" stop-color="#cccccc" stop-opacity="1" />
    </linearGradient>
  </defs>
  <path fill="url(#grad)" d="M22.253,3H1.747C1.332,3,1,3.332,1,3.747v16.506C1,20.668,1.332,21,1.747,21h20.506   C22.668,21,23,20.668,23,20.253V3.747C23,3.332,22.668,3,22.253,3z M22,19.253c0,0.091-0.074,0.163-0.167,0.163H2.167   C2.074,19.416,2,19.344,2,19.253V5.421c0-0.438,0.355-0.791,0.791-0.791h18.419c0.436,0,0.791,0.353,0.791,0.791V19.253z    M22,4.938L15.795,11L2,4.938V4.292L15.795,10L22,4.292V4.938z M2.166,19.416L12,12.352l9.834,7.064H2.166z"/>
</svg>
