<svg width="25" height="26" viewBox="0 0 25 26" fill="none" xmlns="http://www.w3.org/2000/svg">
<g clip-path="url(#clip0_9_40)">
<path d="M17.0686 5.3234C14.4521 5.3234 12.2911 3.62501 9.00137 3.62501C7.78286 3.62501 6.69136 3.83908 5.67886 4.21159C5.81918 3.84512 5.8789 3.45272 5.85396 3.0611C5.76743 1.67262 4.6292 0.5589 3.23916 0.502357C1.677 0.438783 0.390625 1.68634 0.390625 3.23439C0.390625 4.16339 0.854346 4.98366 1.5625 5.4778V24.3281C1.5625 24.9754 2.08716 25.5 2.73438 25.5H3.51562C4.16284 25.5 4.6875 24.9754 4.6875 24.3281V19.7188C6.06987 19.1297 7.79209 18.6386 10.2751 18.6386C12.8917 18.6386 15.0527 20.337 18.3424 20.337C20.6944 20.337 22.5742 19.5414 24.3241 18.342C24.748 18.0514 25 17.5689 25 17.0549V5.18483C25 4.04259 23.815 3.28688 22.7791 3.76803C21.1024 4.54674 19.0459 5.3234 17.0686 5.3234Z" fill="#C0C0C0"/>
</g>
<defs>
<linearGradient id="paint0_linear_9_40" x1="12.6953" y1="0.500031" x2="12.6953" y2="25.5" gradientUnits="userSpaceOnUse">
<stop stop-color="#C0C0C0"/>
<stop offset="0.52" stop-color="#C0C0C0"/>
<stop offset="1" stop-color="#C0C0C0"/>
<stop offset="1" stop-color="#C0C0C0"/>
</linearGradient>
<clipPath id="clip0_9_40">
<rect width="25" height="25" fill="white" transform="translate(0 0.5)"/>
</clipPath>
</defs>
</svg>
