<svg width="31" height="30" viewBox="0 0 31 30" fill="none" xmlns="http://www.w3.org/2000/svg">
  <g clip-path="url(#clip0_9_46)">
    <path d="M10.6895 23.2852C10.6895 23.4023 10.5547 23.4961 10.3848 23.4961C10.1914 23.5137 10.0566 23.4199 10.0566 23.2852C10.0566 23.168 10.1914 23.0742 10.3613 23.0742C10.5371 23.0566 10.6895 23.1504 10.6895 23.2852ZM8.86719 23.0215C8.82617 23.1387 8.94336 23.2734 9.11914 23.3086C9.27148 23.3672 9.44727 23.3086 9.48242 23.1914C9.51758 23.0742 9.40625 22.9395 9.23047 22.8867C9.07812 22.8457 8.9082 22.9043 8.86719 23.0215ZM11.457 22.9219C11.2871 22.9629 11.1699 23.0742 11.1875 23.209C11.2051 23.3262 11.3574 23.4023 11.5332 23.3613C11.7031 23.3203 11.8203 23.209 11.8027 23.0918C11.7852 22.9805 11.627 22.9043 11.457 22.9219ZM15.3125 0.46875C7.18555 0.46875 0.96875 6.63867 0.96875 14.7656C0.96875 21.2637 5.05859 26.8242 10.9004 28.7812C11.6504 28.916 11.9141 28.4531 11.9141 28.0723C11.9141 27.709 11.8965 25.7051 11.8965 24.4746C11.8965 24.4746 7.79492 25.3535 6.93359 22.7285C6.93359 22.7285 6.26562 21.0234 5.30469 20.584C5.30469 20.584 3.96289 19.6641 5.39844 19.6816C5.39844 19.6816 6.85742 19.7988 7.66016 21.1934C8.94336 23.4551 11.0938 22.8047 11.9316 22.418C12.0664 21.4805 12.4473 20.8301 12.8691 20.4434C9.59375 20.0801 6.28906 19.6055 6.28906 13.9688C6.28906 12.3574 6.73438 11.5488 7.67188 10.5176C7.51953 10.1367 7.02148 8.56641 7.82422 6.53906C9.04883 6.1582 11.8672 8.12109 11.8672 8.12109C13.0391 7.79297 14.2988 7.62305 15.5469 7.62305C16.7949 7.62305 18.0547 7.79297 19.2266 8.12109C19.2266 8.12109 22.0449 6.15234 23.2695 6.53906C24.0723 8.57227 23.5742 10.1367 23.4219 10.5176C24.3594 11.5547 24.9336 12.3633 24.9336 13.9688C24.9336 19.623 21.4824 20.0742 18.207 20.4434C18.7461 20.9062 19.2031 21.7852 19.2031 23.1621C19.2031 25.1367 19.1855 27.5801 19.1855 28.0605C19.1855 28.4414 19.4551 28.9043 20.1992 28.7695C26.0586 26.8242 30.0312 21.2637 30.0312 14.7656C30.0312 6.63867 23.4395 0.46875 15.3125 0.46875ZM6.66406 20.6777C6.58789 20.7363 6.60547 20.8711 6.70508 20.9824C6.79883 21.0762 6.93359 21.1172 7.00977 21.041C7.08594 20.9824 7.06836 20.8477 6.96875 20.7363C6.875 20.6426 6.74023 20.6016 6.66406 20.6777ZM6.03125 20.2031C5.99023 20.2793 6.04883 20.373 6.16602 20.4316C6.25977 20.4902 6.37695 20.4727 6.41797 20.3906C6.45898 20.3145 6.40039 20.2207 6.2832 20.1621C6.16602 20.127 6.07227 20.1445 6.03125 20.2031ZM7.92969 22.2891C7.83594 22.3652 7.87109 22.541 8.00586 22.6523C8.14062 22.7871 8.31055 22.8047 8.38672 22.7109C8.46289 22.6348 8.42773 22.459 8.31055 22.3477C8.18164 22.2129 8.00586 22.1953 7.92969 22.2891ZM7.26172 21.4277C7.16797 21.4863 7.16797 21.6387 7.26172 21.7734C7.35547 21.9082 7.51367 21.9668 7.58984 21.9082C7.68359 21.832 7.68359 21.6797 7.58984 21.5449C7.50781 21.4102 7.35547 21.3516 7.26172 21.4277Z" fill="#D3D3D3"/>
  </g>
</svg>
