<svg
  xmlns="http://www.w3.org/2000/svg"
  width="24"
  height="24"
  viewBox="0 0 24 24"
>
  <defs>
    <linearGradient id="grad" x1="0%" y1="0%" x2="100%" y2="0%">
      <stop offset="0%" style="stop-color:rgb(192, 192, 192);stop-opacity:1" />
      <stop offset="100%" style="stop-color:rgb(255, 255, 255);stop-opacity:1" />
    </linearGradient>
  </defs>
  <path
    fill="none"
    d="M0 0h24v24H0V0z"
  />
  <path
    fill="url(#grad)"
    d="M12 2C6.48 2 2 6.48 2 12s4.48 10 10 10 10-4.48 10-10S17.52 2 12 2zm1 16.93c-.6-.07-2.44-.43-3.47-1.33.11-.11.21-.23.32-.35.33-.37.65-.77.94-1.2l1.15-.04c-.06.19-.12.38-.19.56-.17.42-.33.8-.46 1.15zm.94-2.69c-.19.16-.38.3-.56.43-.36.25-.7.47-1.02.66-.66.36-1.27.58-1.73.71-.13.03-.27.05-.4.08.46.52 1.15 1.29 2.11 2.15.07-.3.15-.61.24-.93.31-.14.63-.3.95-.49.18-.11.36-.24.55-.38zm2.37-2.64c-.22-.5-.52-1.1-.91-1.79.14-.08.27-.15.4-.23.14-.09.27-.18.39-.27.37-.28.71-.56 1.02-.82.48-.39.88-.77 1.2-1.11.15.31.28.63.4.95-.41.35-.88.79-1.46 1.32.08.16.15.33.23.51.14.31.28.61.42.88zm-.33-4.38c-.33-.17-.67-.33-1.02-.48-.38-.17-.76-.32-1.15-.46-.09-.02-.18-.04-.27-.06-.17-.04-.33-.08-.5-.12-.03.14-.06.27-.08.41-.04.35-.08.69-.11 1.03-.02.18-.05.35-.06.52.32.06.64.13.94.21.17.05.34.1.5.15.17.05.33.1.49.15.19.06.38.12.56.18.21.07.42.15.63.23-.2-.2-.41-.39-.64-.58z"
  />
</svg>

