<svg width="26" height="25" viewBox="0 0 26 25" fill="none" xmlns="http://www.w3.org/2000/svg">
<path d="M22.375 1.5625H3.62012C2.76074 1.5625 2.0625 2.27051 2.0625 3.13965V21.8604C2.0625 22.7295 2.76074 23.4375 3.62012 23.4375H22.375C23.2344 23.4375 23.9375 22.7295 23.9375 21.8604V3.13965C23.9375 2.27051 23.2344 1.5625 22.375 1.5625ZM8.67383 20.3125H5.43164V9.87305H8.67871V20.3125H8.67383ZM7.05273 8.44727C6.0127 8.44727 5.17285 7.60254 5.17285 6.56738C5.17285 5.53223 6.0127 4.6875 7.05273 4.6875C8.08789 4.6875 8.93262 5.53223 8.93262 6.56738C8.93262 7.60742 8.09277 8.44727 7.05273 8.44727ZM20.8271 20.3125H17.585V15.2344C17.585 14.0234 17.5605 12.4658 15.9004 12.4658C14.2109 12.4658 13.9521 13.7842 13.9521 15.1465V20.3125H10.71V9.87305H13.8203V11.2988H13.8643C14.2988 10.4785 15.3584 9.61426 16.9355 9.61426C20.2168 9.61426 20.8271 11.7773 20.8271 14.5898V20.3125Z" fill="#C0C0C0"/>
</svg>
