<svg version="1.0" xmlns="http://www.w3.org/2000/svg" width="460.000000pt" height="460.000000pt" viewBox="0 0 460.000000 460.000000" preserveAspectRatio="xMidYMid meet">

<g transform="translate(0.000000,460.000000) scale(0.100000,-0.100000)" fill="#000000" stroke="none">
<path d="M0 2300 l0 -2300 2300 0 2300 0 0 2300 0 2300 -2300 0 -2300 0 0 -2300z m3048 1540 c13 -10 26 -35 29 -54 5 -30 -17 -78 -166 -376 -94 -188 -171 -347 -171 -353 0 -5 165 -176 368 -379 202 -202 367 -373 367 -378 0 -18 -809 -821 -833 -827 -58 -14 -123 54 -108 113 4 16 139 158 351 370 l344 344 -285 285 c-157 157 -289 285 -294 285 -5 0 -243 -469 -530 -1042 -286 -574 -531 -1053 -542 -1065 -30 -32 -95 -31 -125 1 -43 44 -34 69 147 431 93 187 170 344 170 349 0 5 -167 175 -370 379 -204 204 -370 374 -370 377 0 14 811 816 834 824 59 22 132 -52 110 -110 -5 -14 -164 -180 -354 -370 l-344 -345 286 -284 c158 -157 291 -285 296 -285 5 0 245 471 533 1048 288 576 533 1055 544 1064 27 23 84 22 113 -2z"/>
<path d="M2959 3835 c-20 -11 -138 -239 -559 -1080 l-533 -1067 -306 306 -306 306 353 353 c382 382 380 380 327 432 -53 53 -45 59 -485 -380 l-405 -405 373 -372 c204 -205 372 -378 372 -383 0 -6 -79 -168 -175 -362 -172 -345 -176 -353 -161 -381 8 -15 26 -33 41 -40 61 -28 41 -62 614 1083 l533 1068 307 -307 306 -306 -353 -353 c-315 -315 -352 -355 -352 -384 0 -22 8 -38 26 -52 57 -44 49 -51 484 384 l405 405 -372 372 c-205 205 -373 378 -373 385 0 6 79 169 175 362 171 342 175 351 161 379 -8 15 -26 33 -41 40 -31 14 -24 14 -56 -3z"/>
</g>
</svg>

